<svg width="18" height="18" viewBox="0 0 18 18" fill="none" xmlns="http://www.w3.org/2000/svg">
<path fill-rule="evenodd" clip-rule="evenodd" d="M3.7676 9.00039C3.7676 8.41584 3.86682 7.85543 4.04389 7.32978L0.944413 5.01367C0.34034 6.21386 0 7.56622 0 9.00039C0 10.4333 0.339922 11.7849 0.943157 12.9843L4.04096 10.6636C3.86556 10.1404 3.7676 9.58208 3.7676 9.00039Z" fill="#FBBC05"/>
<path fill-rule="evenodd" clip-rule="evenodd" d="M9.20938 3.68156C10.5071 3.68156 11.6792 4.13153 12.6002 4.86784L15.2794 2.24984C13.6468 0.859031 11.5537 0 9.20938 0C5.56987 0 2.44192 2.03672 0.944092 5.01265L4.04357 7.32876C4.75774 5.20736 6.79351 3.68156 9.20938 3.68156Z" fill="#EB4335"/>
<path fill-rule="evenodd" clip-rule="evenodd" d="M9.20938 14.3191C6.7935 14.3191 4.75774 12.7933 4.04357 10.6719L0.944092 12.9876C2.44192 15.9639 5.56987 18.0006 9.20938 18.0006C11.4557 18.0006 13.6003 17.2201 15.2099 15.7577L12.2678 13.532C11.4377 14.0438 10.3924 14.3191 9.20938 14.3191Z" fill="#34A853"/>
<path fill-rule="evenodd" clip-rule="evenodd" d="M17.9998 8.99855C17.9998 8.46677 17.9161 7.89409 17.7905 7.3623H9.20874V10.8393H14.1485C13.9015 12.0248 13.2292 12.9362 12.2672 13.5293L15.2093 15.755C16.9001 14.2194 17.9998 11.9319 17.9998 8.99855Z" fill="#4285F4"/>
</svg>
