<svg width="208" height="209" viewBox="0 0 208 209" fill="none" xmlns="http://www.w3.org/2000/svg">
<g filter="url(#filter0_d_550_5611)">
<path d="M22.4675 148.087C-18.6689 91.7342 12.1441 18.1991 82.9603 2.76493C138.249 -9.28499 195.981 28.2082 203.043 80.5147C206.815 108.451 199.511 133.22 179.813 154.724C178.215 156.469 177.189 158.182 177.586 160.582C179.159 170.098 180.65 179.626 182.138 189.154C182.733 192.971 182.925 196.765 178.889 199.257C175.131 201.578 171.589 200.272 168.151 198.404C159.536 193.719 150.813 189.194 142.353 184.278C138.951 182.302 135.98 182.158 132.228 183.2C91.4202 194.527 47.7169 180.596 22.4675 148.087ZM188.324 90.6816C188.154 85.3709 187.388 80.206 186.12 74.9563C177.942 41.1149 140.714 11.0532 95.703 15.4866C47.3552 20.2486 13.7647 60.0867 20.3111 104.929C27.3698 153.279 79.7643 184.007 129.844 168.763C136.9 166.616 142.366 167.123 148.285 170.769C153.25 173.827 158.269 176.976 165.041 179.26C163.219 171.875 163.301 165.324 162.111 159.016C161.164 154 162.84 150.739 166.118 147.355C181.397 131.577 189.324 113.22 188.324 90.6816Z" fill="#3498DB"/>
<path d="M128.728 66.0596C136.014 66.0991 137.793 69.9693 137.78 75.4235C137.737 93.5589 137.76 111.695 137.821 129.83C137.828 131.727 137.259 133.729 138.692 135.983C147.843 129.916 154.023 122.006 157.919 112.449C158.52 110.978 158.916 109.431 159.571 107.983C161.466 103.791 164.728 101.451 169.615 103.261C174.253 104.979 175.619 108.525 174.089 112.981C167.8 131.293 155.834 145.275 137.355 154.195C132.915 156.338 128.441 158.667 123.362 158.586C121.404 156.704 121.867 154.644 121.866 152.734C121.846 127.502 121.829 102.269 121.911 77.0376C121.925 72.4669 122.029 67.7208 128.728 66.0596Z" fill="#3498DB"/>
<path d="M165.833 85.1622C160.266 83.9329 159.484 79.6716 158.074 76.0781C151.239 58.6647 138.084 47.3389 119.091 42.4046C101.054 37.7186 84.1816 40.8658 69.1243 51.4529C67.093 52.8812 65.1489 54.4175 63.1847 55.9266C59.5091 58.7506 55.7229 58.9546 52.4113 55.6876C49.0532 52.3748 49.7596 48.7985 52.91 45.6525C61.7134 36.8619 72.7766 31.5013 85.061 28.4153C123.035 18.8755 162.146 39.0707 173.693 73.984C175.91 80.6854 173.943 83.6914 165.833 85.1622Z" fill="#3498DB"/>
<path d="M112.128 144.452C112.127 148.196 111.901 151.367 112.173 154.501C112.644 159.931 110.181 161.53 104.386 161.625C97.9769 161.729 95.9566 159.961 96.0826 153.919C96.4813 134.801 96.1984 115.671 96.2759 96.546C96.303 89.8666 99.2722 86.584 104.645 87.1654C111.057 87.8593 112.065 92.3193 112.087 97.1337C112.159 112.71 112.122 128.286 112.128 144.452Z" fill="#3498DB"/>
<path d="M50.3994 136.278C54.1969 127.957 56.3467 127.984 69.3517 136.109C71.6142 134.493 70.5742 132.16 70.6181 130.195C70.7808 122.906 70.6162 115.611 70.7646 108.321C70.8495 104.152 73.2607 101.624 77.8814 101.585C82.0062 101.551 85.2673 103.524 85.3244 107.415C85.5723 124.306 85.4308 141.202 85.4308 158.002C80.8522 159.534 77.7782 157.248 74.6273 155.998C66.9572 152.957 60.0875 148.676 54.0055 143.352C51.9594 141.561 50.1754 139.622 50.3994 136.278Z" fill="#3498DB"/>
<path d="M31.1011 95.8295C30.9206 87.106 32.7175 79.2442 35.292 71.4961C36.8984 66.6616 40.4642 64.6354 45.5446 66.247C50.3909 67.7845 51.5066 71.2731 49.9214 75.7999C45.45 88.5688 45.4472 101.278 50.7454 113.918C52.5932 118.326 51.7951 122.403 46.5888 124.174C41.3415 125.959 38.1301 123.092 36.1858 118.81C32.9331 111.647 31.8547 104.046 31.1011 95.8295Z" fill="#3498DB"/>
</g>
<defs>
<filter id="filter0_d_550_5611" x="0" y="0.5" width="208" height="208" filterUnits="userSpaceOnUse" color-interpolation-filters="sRGB">
<feFlood flood-opacity="0" result="BackgroundImageFix"/>
<feColorMatrix in="SourceAlpha" type="matrix" values="0 0 0 0 0 0 0 0 0 0 0 0 0 0 0 0 0 0 127 0" result="hardAlpha"/>
<feOffset dy="4"/>
<feGaussianBlur stdDeviation="2"/>
<feComposite in2="hardAlpha" operator="out"/>
<feColorMatrix type="matrix" values="0 0 0 0 0 0 0 0 0 0 0 0 0 0 0 0 0 0 0.25 0"/>
<feBlend mode="normal" in2="BackgroundImageFix" result="effect1_dropShadow_550_5611"/>
<feBlend mode="normal" in="SourceGraphic" in2="effect1_dropShadow_550_5611" result="shape"/>
</filter>
</defs>
</svg>
