<svg width="20" height="20" viewBox="0 0 20 20" fill="none" xmlns="http://www.w3.org/2000/svg">
<path fill-rule="evenodd" clip-rule="evenodd" d="M8.13525 1.25C6.76206 1.25 5.64891 2.32783 5.64891 3.65741V5.32408H9.95219V5.78704H3.73634C2.36317 5.78704 1.25 6.86488 1.25 8.19444V11.8056C1.25 13.1351 2.36317 14.2129 3.73634 14.2129H5.17076V12.1759C5.17076 10.8464 6.28394 9.7685 7.65712 9.7685H12.2472C13.4092 9.7685 14.3511 8.8565 14.3511 7.7315V3.65741C14.3511 2.32783 13.2379 1.25 11.8647 1.25H8.13525ZM7.5615 4.21296C8.03681 4.21296 8.42212 3.83986 8.42212 3.37963C8.42212 2.91939 8.03681 2.54629 7.5615 2.54629C7.08612 2.54629 6.70081 2.91939 6.70081 3.37963C6.70081 3.83986 7.08612 4.21296 7.5615 4.21296Z" fill="url(#paint0_linear_565_423)"/>
<path fill-rule="evenodd" clip-rule="evenodd" d="M11.8646 18.7501C13.2378 18.7501 14.351 17.6722 14.351 16.3427V14.676H10.0477V14.2131H16.2636C17.6367 14.2131 18.7499 13.1352 18.7499 11.8056V8.1945C18.7499 6.86493 17.6367 5.78711 16.2636 5.78711H14.8291V7.82412C14.8291 9.15375 13.7159 10.2316 12.3428 10.2316H7.75262C6.59068 10.2316 5.6488 11.1436 5.6488 12.2686V16.3427C5.6488 17.6722 6.762 18.7501 8.13512 18.7501H11.8646ZM12.4384 15.7871C11.9631 15.7871 11.5777 16.1602 11.5777 16.6204C11.5777 17.0807 11.9631 17.4537 12.4384 17.4537C12.9137 17.4537 13.2991 17.0807 13.2991 16.6204C13.2991 16.1602 12.9137 15.7871 12.4384 15.7871Z" fill="url(#paint1_linear_565_423)"/>
<defs>
<linearGradient id="paint0_linear_565_423" x1="7.80056" y1="1.25" x2="7.80056" y2="14.2129" gradientUnits="userSpaceOnUse">
<stop stop-color="#327EBD"/>
<stop offset="1" stop-color="#1565A7"/>
</linearGradient>
<linearGradient id="paint1_linear_565_423" x1="12.1994" y1="5.78711" x2="12.1994" y2="18.7501" gradientUnits="userSpaceOnUse">
<stop stop-color="#FFDA4B"/>
<stop offset="1" stop-color="#F9C600"/>
</linearGradient>
</defs>
</svg>
