<svg width="20" height="20" viewBox="0 0 20 20" fill="none" xmlns="http://www.w3.org/2000/svg">
<g clip-path="url(#clip0_565_430)">
<path d="M10.0003 11.3857C10.7732 11.3857 11.3997 10.7591 11.3997 9.98629C11.3997 9.21344 10.7732 8.58691 10.0003 8.58691C9.22747 8.58691 8.60095 9.21344 8.60095 9.98629C8.60095 10.7591 9.22747 11.3857 10.0003 11.3857Z" fill="#00D8FF"/>
<path fill-rule="evenodd" clip-rule="evenodd" d="M10.1031 7.03621C12.4891 7.05246 15.0922 7.22652 16.8791 8.81996C16.9316 8.86683 16.9822 8.91558 17.0316 8.96589C17.4531 9.39558 17.6734 10.0893 17.3331 10.6603C16.635 11.8325 15.0738 12.3437 13.5622 12.6584C11.3016 13.129 8.93783 13.1328 6.67814 12.7184C5.37783 12.4796 4.04814 12.0612 3.12408 11.1859C2.76439 10.8453 2.45689 10.3971 2.50501 9.89839C2.58314 9.09152 3.3572 8.57371 4.00876 8.22308C5.81845 7.24933 8.02345 7.03152 10.1031 7.03621ZM9.93001 7.40277C7.67251 7.41808 5.22908 7.56214 3.48595 9.00558C3.42501 9.05589 3.36626 9.10871 3.3097 9.16402C3.27314 9.19964 3.23783 9.23683 3.20376 9.27496C2.89783 9.61871 2.79251 10.1709 3.08126 10.5837C3.37189 10.999 3.81314 11.2987 4.26751 11.5431C5.96689 12.4568 7.97501 12.619 9.93283 12.6259C11.915 12.6331 13.9591 12.4525 15.71 11.5471C16.4075 11.1862 17.1925 10.6562 17.1647 9.97371C17.1391 9.34746 16.5285 8.96058 16.0713 8.68433C15.9475 8.60964 15.8203 8.54058 15.6913 8.47558C13.9531 7.60464 11.9163 7.39839 9.93001 7.40277Z" fill="#00D8FF"/>
<path fill-rule="evenodd" clip-rule="evenodd" d="M13.161 3.34492C14.0338 3.3671 14.486 4.41648 14.5456 5.19148C14.5575 5.34554 14.5619 5.50023 14.56 5.65491C14.5581 5.82241 14.5491 5.98991 14.5344 6.15679C14.3503 8.22304 13.4069 10.1909 12.296 12.008C11.2094 13.7855 9.88439 15.558 8.08189 16.3818C7.48596 16.6543 6.77721 16.8224 6.24971 16.5184C5.52658 16.1018 5.44752 15.1274 5.46096 14.3884C5.46439 14.2068 5.47627 14.0252 5.49502 13.8443C5.77283 11.1693 7.12877 8.63523 8.82564 6.4521C9.81564 5.17835 10.9935 3.91492 12.4606 3.45742C12.6916 3.38523 12.875 3.34148 13.161 3.34492ZM13.1191 3.71117C12.0944 3.72742 11.1744 4.48679 10.3597 5.27585C8.21783 7.34992 6.63939 10.1084 6.00439 13.0012C5.95533 13.2252 5.91408 13.4509 5.88377 13.678C5.86033 13.854 5.84314 14.0309 5.83408 14.2084C5.82689 14.3496 5.82439 14.4912 5.82877 14.6327C5.83189 14.7434 5.83908 14.854 5.85127 14.964C5.86033 15.048 5.87252 15.1318 5.88783 15.2149C5.89939 15.2765 5.91283 15.3377 5.92846 15.3987C5.94127 15.448 5.95564 15.4971 5.97189 15.5459C6.09971 15.9312 6.42908 16.2993 6.87127 16.3115C7.90283 16.3396 8.87408 15.5874 9.71377 14.7699C11.1878 13.3352 12.2863 11.5324 13.1444 9.63741C13.8369 8.10742 14.4703 6.44429 14.1166 4.76023C14.1031 4.69648 14.0875 4.63335 14.0697 4.57085C14.055 4.51992 14.0385 4.4696 14.0203 4.41992C13.8828 4.04523 13.5594 3.71023 13.1191 3.71117Z" fill="#00D8FF"/>
<path fill-rule="evenodd" clip-rule="evenodd" d="M6.90908 3.35843C8.02283 3.37999 9.02314 4.13593 9.91127 4.98249C11.5319 6.52718 12.7272 8.49218 13.6341 10.5603C14.3366 12.1625 14.9828 13.9609 14.4085 15.6516C14.2275 16.1844 13.7697 16.6719 13.1594 16.6844C12.0403 16.7069 11.0031 15.8931 10.1031 15.0172C7.84533 12.8191 6.16908 9.91718 5.59471 6.83968C5.55346 6.61968 5.52064 6.3978 5.49814 6.17499C5.47971 5.99311 5.46814 5.8103 5.46502 5.62749C5.46252 5.47999 5.46564 5.33249 5.47596 5.18561C5.48283 5.08749 5.49283 4.98999 5.50627 4.8928C5.51908 4.80155 5.53533 4.71061 5.55564 4.62061C5.56908 4.56093 5.58408 4.50186 5.60127 4.44311C5.76971 3.86718 6.20783 3.35405 6.90908 3.35843ZM6.86689 3.72499C6.21471 3.73936 5.91627 4.50843 5.85627 5.04811C5.84408 5.15874 5.83658 5.2703 5.83314 5.38186C5.82877 5.52436 5.83064 5.66718 5.83783 5.80968C5.94033 7.87186 6.86221 9.86561 7.97471 11.6912C9.02221 13.41 10.2872 15.1219 12.0272 16.0019C12.5297 16.2559 13.1403 16.4556 13.5744 16.2156C14.1188 15.9144 14.1856 15.1966 14.2147 14.6616C14.2225 14.5159 14.2235 14.3697 14.2188 14.2237C14.2131 14.0406 14.1988 13.8578 14.1772 13.6759C13.9766 11.9769 13.2241 10.3691 12.3597 8.84968C11.2841 6.95968 9.96627 5.07593 8.10127 4.09186C7.71502 3.88811 7.29689 3.72155 6.86689 3.72499Z" fill="#00D8FF"/>
</g>
<defs>
<clipPath id="clip0_565_430">
<rect width="20" height="20" fill="white"/>
</clipPath>
</defs>
</svg>
