<svg width="20" height="20" viewBox="0 0 20 20" fill="none" xmlns="http://www.w3.org/2000/svg">
<path d="M8.52323 10.0595C8.52323 12.5876 8.70386 14.7118 7.45648 15.969C6.75487 16.6762 5.64784 17.0929 4.28577 17.0929C2.05171 17.0929 0.81128 16.0045 0.0195618 14.4985C0.781749 14.0118 1.56066 13.5414 2.35452 13.0863C2.67843 13.992 3.77214 15.0104 5.0064 14.3835C5.7887 13.9859 5.69839 12.7804 5.69839 11.4719C5.69839 8.75517 5.69839 5.62114 5.69839 3.17005C5.69593 3.12927 5.69351 3.08853 5.72698 3.08357C6.65925 3.08357 7.59136 3.08357 8.52327 3.08357C8.52323 5.26696 8.52323 7.73716 8.52323 10.0595ZM15.6143 8.41657C14.9016 8.11134 14.0156 7.75025 13.7984 7.09032C13.5549 6.35071 13.9701 5.74138 14.4324 5.53403C15.4489 5.07747 16.6605 5.82919 16.9114 6.60048C17.6764 6.14513 18.4389 5.68704 19.1312 5.15923C18.3177 3.80829 17.1252 2.84118 14.9514 2.91075C13.7545 2.949 12.8554 3.32685 12.1842 3.89075C11.5291 4.44095 11.0232 5.21318 10.9444 6.3122C10.7091 9.60173 13.1705 10.4414 15.2685 11.3566C15.9298 11.6451 16.665 11.9364 16.9692 12.5096C17.5966 13.6925 16.4853 14.4729 15.5279 14.5564C13.9914 14.6902 12.9553 13.7913 12.357 12.8556C11.6096 13.3189 10.7969 13.7167 10.0798 14.2104C11.0773 15.9646 12.7129 17.1002 15.2685 17.0929C17.8755 17.0856 19.8083 15.8286 19.9669 13.461C20.1827 10.2429 17.7717 9.34013 15.6143 8.41657Z" fill="black"/>
</svg>
